<svg width="1218" height="598" viewBox="0 0 1218 598" fill="none" xmlns="http://www.w3.org/2000/svg">
<path d="M636.603 290.726H780.353C789.931 290.726 800.911 290.37 805.875 282.179C810.948 273.809 813.104 257.466 799.071 225.859C751.324 118.313 675.473 99.7092 643.156 96.8363C633.728 95.9981 625.635 102.135 622.287 110.988C621.228 113.79 620.685 116.76 620.685 119.756V274.808C620.685 283.599 627.812 290.726 636.603 290.726Z" fill="#DDDDDD"/>
<path d="M620.685 88.1641C620.685 88.1641 620.498 67.8557 621.471 28.4698C621.864 12.5514 620.292 3.79621 632.08 3.7962C648.865 3.7962 878.048 4.19416 1197.1 3.00028C1207.62 2.9609 1211.74 7.04868 1213.36 10.3695C1214.62 12.9671 1214.4 15.8302 1214.42 18.7176C1214.67 52.3362 1216.21 277.747 1212.94 284.948C1209.4 292.729 1219.45 290.726 817.931 290.726M854.865 250.93C828.147 80.2048 659.191 47.174 659.191 47.174M854.865 250.93L826.561 214.318M854.865 250.93L870.175 203.971M799.071 225.859C751.324 118.313 675.473 99.7092 643.156 96.8363C633.728 95.9981 625.635 102.135 622.287 110.988V110.988C621.228 113.79 620.685 116.76 620.685 119.756V274.808V274.808C620.685 283.599 627.812 290.726 636.603 290.726H780.353C789.931 290.726 800.911 290.37 805.875 282.179C810.948 273.809 813.104 257.466 799.071 225.859Z" stroke="black" stroke-width="5"/>
<path d="M581.397 307.274H437.647C428.069 307.274 417.089 307.63 412.125 315.821C407.052 324.191 404.896 340.534 418.929 372.141C466.676 479.687 542.527 498.291 574.844 501.164C584.272 502.002 592.365 495.865 595.713 487.012C596.772 484.21 597.315 481.24 597.315 478.244V323.192C597.315 314.401 590.188 307.274 581.397 307.274Z" fill="#F0B624"/>
<path d="M597.315 509.836C597.315 509.836 597.502 530.144 596.529 569.53C596.136 585.449 597.708 594.204 585.92 594.204C569.135 594.204 339.952 593.806 20.9009 595C10.3772 595.039 6.25602 590.951 4.64416 587.631C3.38332 585.033 3.60233 582.17 3.58095 579.282C3.33203 545.664 1.78729 320.253 5.06195 313.052C8.60081 305.271 -1.45026 307.274 400.069 307.274M363.135 347.07C389.853 517.795 558.809 550.826 558.809 550.826M363.135 347.07L397.885 371.114M363.135 347.07L347.198 380.267M418.929 372.141C466.676 479.687 542.527 498.291 574.844 501.164C584.272 502.002 592.365 495.865 595.713 487.012V487.012C596.772 484.21 597.315 481.24 597.315 478.244V323.192V323.192C597.315 314.401 590.188 307.274 581.397 307.274H437.647C428.069 307.274 417.089 307.63 412.125 315.821C407.052 324.191 404.896 340.534 418.929 372.141Z" stroke="black" stroke-width="5"/>
<path d="M636.603 305.682H780.353C789.931 305.682 800.911 306.039 805.875 314.229C810.948 322.599 813.104 338.942 799.071 370.549C751.324 478.096 675.473 496.699 643.156 499.572C633.728 500.41 625.635 494.274 622.287 485.42C621.228 482.618 620.685 479.648 620.685 476.653V321.6C620.685 312.809 627.812 305.682 636.603 305.682Z" fill="#F0B624"/>
<path d="M620.685 508.244C620.685 508.244 620.498 528.552 621.471 567.938C621.864 583.857 620.292 592.612 632.08 592.612C648.865 592.612 878.048 592.214 1197.1 593.408C1207.62 593.447 1211.74 589.359 1213.36 586.039C1214.62 583.441 1214.4 580.578 1214.42 577.691C1214.67 544.072 1216.21 318.661 1212.94 311.461C1209.4 303.68 1219.45 305.682 817.931 305.682M854.865 345.478C828.147 516.203 659.191 549.234 659.191 549.234M659.191 549.234L695.733 562.765M659.191 549.234L684.338 519.387M799.071 370.549C751.324 478.096 675.473 496.699 643.156 499.572C633.728 500.41 625.635 494.274 622.287 485.42V485.42C621.228 482.618 620.685 479.648 620.685 476.653V321.6V321.6C620.685 312.809 627.812 305.682 636.603 305.682H780.353C789.931 305.682 800.911 306.039 805.875 314.229C810.948 322.599 813.104 338.942 799.071 370.549Z" stroke="black" stroke-width="5"/>
<path d="M581.397 290.726H437.647C428.069 290.726 417.089 290.37 412.125 282.179C407.052 273.809 404.896 257.466 418.929 225.859C466.676 118.313 542.527 99.7092 574.844 96.8363C584.272 95.9981 592.365 102.135 595.713 110.988C596.772 113.79 597.315 116.76 597.315 119.756V274.808C597.315 283.599 590.188 290.726 581.397 290.726Z" fill="#F0B624"/>
<path d="M597.315 88.1641C597.315 88.1641 597.502 67.8557 596.529 28.4698C596.136 12.5514 597.708 3.79621 585.92 3.7962C569.135 3.7962 339.952 4.19416 20.9009 3.00028C10.3772 2.9609 6.25602 7.04868 4.64416 10.3695C3.38332 12.9671 3.60233 15.8302 3.58095 18.7176C3.33203 52.3362 1.78729 277.747 5.06195 284.948C8.60081 292.729 -1.45026 290.726 400.069 290.726M363.135 250.93C389.853 80.2048 558.809 47.174 558.809 47.174M558.809 47.174L522.267 33.6433M558.809 47.174L533.662 77.0211M418.929 225.859C466.676 118.313 542.527 99.7092 574.844 96.8363C584.272 95.9981 592.365 102.135 595.713 110.988V110.988C596.772 113.79 597.315 116.76 597.315 119.756V274.808V274.808C597.315 283.599 590.188 290.726 581.397 290.726H437.647C428.069 290.726 417.089 290.37 412.125 282.179C407.052 273.809 404.896 257.466 418.929 225.859Z" stroke="black" stroke-width="5"/>
</svg>
