<svg width="1548" height="750" viewBox="0 0 1548 750" fill="none" xmlns="http://www.w3.org/2000/svg">
<path d="M809.018 364.5H992.711C1004.56 364.5 1018.09 364.124 1024.45 354.128C1031.06 343.724 1034.08 323.178 1016.02 283C955.121 147.573 858.3 124.4 817.334 120.872C805.501 119.853 795.328 127.523 791.081 138.613C789.717 142.174 789.018 145.956 789.018 149.769V344.5C789.018 355.546 797.972 364.5 809.018 364.5Z" fill="#F0B624"/>
<path d="M789.018 110C789.018 110 788.78 84.4849 790.018 35.0004C790.518 15.0004 788.518 4.00036 803.518 4.00035C824.878 4.00034 1116.52 4.50035 1522.52 3.00035C1536.97 2.94695 1541.94 8.93569 1543.64 13.2323C1544.71 15.9516 1544.53 18.8566 1544.55 21.781C1544.84 60.4398 1546.87 348.121 1542.67 357.24C1538.17 367.016 1550.96 364.5 1040.02 364.5M1087.02 314.5C1053.02 100 838.018 58.5004 838.018 58.5004M1087.02 314.5L1051 268.5M1087.02 314.5L1106.5 255.5M1016.02 283C955.121 147.573 858.3 124.4 817.334 120.872C805.501 119.853 795.328 127.523 791.081 138.613V138.613C789.717 142.174 789.018 145.956 789.018 149.769V344.5V344.5C789.018 355.546 797.972 364.5 809.018 364.5H992.711C1004.56 364.5 1018.09 364.124 1024.45 354.128C1031.06 343.724 1034.08 323.178 1016.02 283Z" stroke="black" stroke-width="5"/>
<path d="M739.279 385.29H555.586C543.738 385.29 530.208 385.666 523.849 395.663C517.232 406.066 514.213 426.612 532.279 466.79C593.176 602.218 689.997 625.39 730.963 628.919C742.795 629.938 752.969 622.268 757.216 611.178C758.58 607.616 759.279 603.835 759.279 600.022V405.29C759.279 394.245 750.325 385.29 739.279 385.29Z" fill="#F0B624"/>
<path d="M759.279 639.79C759.279 639.79 759.516 665.306 758.279 714.79C757.779 734.79 759.779 745.79 744.779 745.79C723.419 745.79 431.779 745.29 25.7793 746.79C11.3235 746.844 6.3614 740.855 4.66129 736.558C3.58528 733.839 3.76865 730.934 3.74655 728.01C3.45434 689.351 1.42348 401.67 5.62387 392.551C10.1272 382.775 -2.66306 385.29 508.279 385.29M461.279 435.29C495.279 649.79 710.279 691.29 710.279 691.29M461.279 435.29L505.5 465.5M461.279 435.29L441 477M532.279 466.79C593.176 602.218 689.997 625.39 730.963 628.919C742.795 629.938 752.969 622.268 757.216 611.178V611.178C758.58 607.616 759.279 603.835 759.279 600.022V405.29V405.29C759.279 394.245 750.325 385.29 739.279 385.29H555.586C543.738 385.29 530.208 385.666 523.849 395.663C517.232 406.066 514.213 426.612 532.279 466.79Z" stroke="black" stroke-width="5"/>
<path d="M809.018 383.29H992.711C1004.56 383.29 1018.09 383.666 1024.45 393.663C1031.06 404.066 1034.08 424.612 1016.02 464.79C955.121 600.218 858.3 623.39 817.334 626.919C805.501 627.938 795.328 620.268 791.081 609.178C789.717 605.616 789.018 601.835 789.018 598.022V403.29C789.018 392.245 797.972 383.29 809.018 383.29Z" fill="#F0B624"/>
<path d="M789.018 637.79C789.018 637.79 788.78 663.306 790.018 712.79C790.518 732.79 788.518 743.79 803.518 743.79C824.878 743.79 1116.52 743.29 1522.52 744.79C1536.97 744.844 1541.94 738.855 1543.64 734.558C1544.71 731.839 1544.53 728.934 1544.55 726.01C1544.84 687.351 1546.87 399.67 1542.67 390.551C1538.17 380.775 1550.96 383.29 1040.02 383.29M1087.02 433.29C1053.02 647.79 838.018 689.29 838.018 689.29M838.018 689.29L884.518 706.29M838.018 689.29L870.018 651.79M1016.02 464.79C955.121 600.218 858.3 623.39 817.334 626.919C805.501 627.938 795.328 620.268 791.081 609.178V609.178C789.717 605.616 789.018 601.835 789.018 598.022V403.29V403.29C789.018 392.245 797.972 383.29 809.018 383.29H992.711C1004.56 383.29 1018.09 383.666 1024.45 393.663C1031.06 404.066 1034.08 424.612 1016.02 464.79Z" stroke="black" stroke-width="5"/>
<path d="M739.279 364.5H555.586C543.738 364.5 530.208 364.124 523.849 354.128C517.232 343.724 514.213 323.178 532.279 283C593.176 147.573 689.997 124.4 730.963 120.872C742.795 119.853 752.969 127.523 757.216 138.613C758.58 142.174 759.279 145.956 759.279 149.769V344.5C759.279 355.546 750.325 364.5 739.279 364.5Z" fill="#F0B624"/>
<path d="M759.279 110C759.279 110 759.516 84.4849 758.279 35.0004C757.779 15.0004 759.779 4.00036 744.779 4.00035C723.419 4.00034 431.779 4.50035 25.7793 3.00035C11.3235 2.94695 6.3614 8.93569 4.66129 13.2323C3.58528 15.9516 3.76865 18.8566 3.74655 21.781C3.45434 60.4398 1.42348 348.121 5.62387 357.24C10.1272 367.016 -2.66306 364.5 508.279 364.5M461.279 314.5C495.279 100 710.279 58.5004 710.279 58.5004M710.279 58.5004L663.779 41.5004M710.279 58.5004L678.279 96.0004M532.279 283C593.176 147.573 689.997 124.4 730.963 120.872C742.795 119.853 752.969 127.523 757.216 138.613V138.613C758.58 142.174 759.279 145.956 759.279 149.769V344.5V344.5C759.279 355.546 750.325 364.5 739.279 364.5H555.586C543.738 364.5 530.208 364.124 523.849 354.128C517.232 343.724 514.213 323.178 532.279 283Z" stroke="black" stroke-width="5"/>
</svg>
