<?xml version="1.0" standalone="no"?>
<!DOCTYPE svg PUBLIC "-//W3C//DTD SVG 20010904//EN"
 "http://www.w3.org/TR/2001/REC-SVG-20010904/DTD/svg10.dtd">
<svg version="1.0" xmlns="http://www.w3.org/2000/svg"
 width="1641.000000pt" height="818.000000pt" viewBox="0 0 1641.000000 818.000000"
 preserveAspectRatio="xMidYMid meet">

<g transform="translate(0.000000,818.000000) scale(0.100000,-0.100000)"
fill="#000000" stroke="none">
<path d="M7111 5625 c-168 -47 -299 -185 -334 -351 -14 -69 -7 -75 82 -72 70
3 70 4 92 77 18 61 95 143 160 171 79 33 174 31 252 -8 l60 -30 48 45 c27 25
49 54 49 64 0 23 -58 62 -131 91 -71 27 -205 33 -278 13z"/>
<path d="M9211 5555 c-130 -37 -239 -127 -295 -245 -41 -84 -53 -144 -35 -166
9 -11 29 -14 78 -12 l66 3 17 53 c58 182 252 267 419 184 l62 -30 48 45 c27
25 49 54 49 64 0 23 -58 62 -131 91 -71 27 -205 33 -278 13z"/>
<path d="M7517 5411 l-46 -49 30 -60 c40 -76 43 -171 9 -251 -28 -65 -110
-142 -171 -160 -73 -22 -74 -22 -77 -92 -3 -89 3 -96 72 -82 224 47 381 258
363 488 -8 111 -74 255 -116 255 -10 0 -39 -22 -64 -49z"/>
<path d="M9622 5347 c-23 -23 -42 -48 -42 -54 0 -6 12 -37 26 -68 77 -167 -9
-356 -188 -413 l-53 -17 -3 -66 c-2 -49 1 -69 12 -78 22 -18 82 -6 166 35 169
81 272 260 257 449 -8 110 -74 255 -115 255 -10 0 -37 -19 -60 -43z"/>
<path d="M7191 5356 c-8 -9 -11 -61 -9 -162 l3 -149 50 0 50 0 3 149 c3 164
-1 176 -53 176 -18 0 -38 -6 -44 -14z"/>
<path d="M7024 5297 c-2 -7 -3 -67 -2 -133 l3 -119 44 -3 c28 -2 47 1 52 10
10 15 12 218 3 242 -8 20 -92 23 -100 3z"/>
<path d="M9291 5286 c-8 -9 -11 -61 -9 -162 l3 -149 50 0 50 0 3 149 c3 164
-1 176 -53 176 -18 0 -38 -6 -44 -14z"/>
<path d="M9124 5227 c-2 -7 -3 -67 -2 -133 l3 -119 44 -3 c28 -2 47 1 52 10
10 15 12 218 3 242 -8 20 -92 23 -100 3z"/>
<path d="M7344 5187 c-3 -8 -4 -43 -2 -78 l3 -64 50 0 50 0 0 75 0 75 -48 3
c-34 2 -49 -1 -53 -11z"/>
<path d="M6774 5125 c-8 -20 12 -98 40 -160 50 -108 170 -208 290 -240 91 -25
96 -21 96 69 l0 75 -52 15 c-100 29 -182 113 -207 211 l-11 45 -75 0 c-58 0
-77 -3 -81 -15z"/>
<path d="M9446 5115 c-9 -24 -7 -118 3 -133 5 -9 24 -12 52 -10 l44 3 0 75 0
75 -46 3 c-36 2 -48 -1 -53 -13z"/>
<path d="M8873 5054 c-10 -27 28 -142 67 -202 66 -101 155 -168 265 -197 90
-25 95 -21 95 69 l0 75 -53 15 c-101 29 -173 101 -203 204 l-15 52 -75 0 c-58
0 -76 -3 -81 -16z"/>
<path d="M7181 3545 c-130 -37 -239 -127 -295 -245 -41 -84 -53 -144 -35 -166
9 -11 29 -14 78 -12 l66 3 17 53 c58 182 252 267 419 184 l62 -30 48 45 c27
25 49 54 49 64 0 23 -58 62 -131 91 -71 27 -205 33 -278 13z"/>
<path d="M9281 3475 c-130 -37 -239 -127 -295 -245 -41 -84 -53 -144 -35 -166
9 -11 29 -14 78 -12 l66 3 17 53 c58 182 252 267 419 184 l62 -30 48 45 c27
25 49 54 49 64 0 23 -58 62 -131 91 -71 27 -205 33 -278 13z"/>
<path d="M7592 3337 c-23 -23 -42 -48 -42 -54 0 -6 12 -37 26 -68 77 -167 -9
-356 -188 -413 l-53 -17 -3 -66 c-2 -49 1 -69 12 -78 22 -18 82 -6 166 35 169
81 272 260 257 449 -8 110 -74 255 -115 255 -10 0 -37 -19 -60 -43z"/>
<path d="M9692 3267 c-23 -23 -42 -48 -42 -54 0 -6 12 -37 26 -68 77 -167 -9
-356 -188 -413 l-53 -17 -3 -66 c-2 -49 1 -69 12 -78 22 -18 82 -6 166 35 169
81 272 260 257 449 -8 110 -74 255 -115 255 -10 0 -37 -19 -60 -43z"/>
<path d="M7261 3276 c-8 -9 -11 -61 -9 -162 l3 -149 50 0 50 0 3 149 c3 164
-1 176 -53 176 -18 0 -38 -6 -44 -14z"/>
<path d="M7094 3217 c-2 -7 -3 -67 -2 -133 l3 -119 44 -3 c28 -2 47 1 52 10
10 15 12 218 3 242 -8 20 -92 23 -100 3z"/>
<path d="M9361 3206 c-8 -9 -11 -61 -9 -162 l3 -149 50 0 50 0 3 149 c3 164
-1 176 -53 176 -18 0 -38 -6 -44 -14z"/>
<path d="M9194 3147 c-2 -7 -3 -67 -2 -133 l3 -119 44 -3 c28 -2 47 1 52 10
10 15 12 218 3 242 -8 20 -92 23 -100 3z"/>
<path d="M7416 3105 c-9 -24 -7 -118 3 -133 5 -9 24 -12 52 -10 l44 3 0 75 0
75 -46 3 c-36 2 -48 -1 -53 -13z"/>
<path d="M6843 3044 c-10 -27 28 -142 67 -202 66 -101 155 -168 265 -197 90
-25 95 -21 95 69 l0 75 -53 15 c-101 29 -173 101 -203 204 l-15 52 -75 0 c-58
0 -76 -3 -81 -16z"/>
<path d="M9516 3035 c-9 -24 -7 -118 3 -133 5 -9 24 -12 52 -10 l44 3 0 75 0
75 -46 3 c-36 2 -48 -1 -53 -13z"/>
<path d="M8943 2974 c-10 -27 28 -142 67 -202 66 -101 155 -168 265 -197 90
-25 95 -21 95 69 l0 75 -53 15 c-101 29 -173 101 -203 204 l-15 52 -75 0 c-58
0 -76 -3 -81 -16z"/>
</g>
</svg>
